<mxfile host="65bd71144e">
    <diagram name="Ablaufdiagramm" id="2YBvvXClWsGukQMizWep">
        <mxGraphModel dx="1236" dy="596" grid="1" gridSize="10" guides="1" tooltips="1" connect="1" arrows="1" fold="1" page="1" pageScale="1" pageWidth="850" pageHeight="1100" math="0" shadow="0">
            <root>
                <mxCell id="0"/>
                <mxCell id="1" parent="0"/>
                <mxCell id="33" value="" style="edgeStyle=orthogonalEdgeStyle;rounded=0;orthogonalLoop=1;jettySize=auto;html=1;" parent="1" edge="1">
                    <mxGeometry relative="1" as="geometry">
                        <Array as="points">
                            <mxPoint x="593.1899999999999" y="657.03"/>
                            <mxPoint x="593.1899999999999" y="657.03"/>
                        </Array>
                        <mxPoint x="631.8" y="654.01" as="sourcePoint"/>
                        <mxPoint x="548.1899999999998" y="657.03" as="targetPoint"/>
                    </mxGeometry>
                </mxCell>
                <mxCell id="14" value="" style="edgeStyle=orthogonalEdgeStyle;rounded=0;orthogonalLoop=1;jettySize=auto;html=1;" parent="1" edge="1">
                    <mxGeometry relative="1" as="geometry">
                        <Array as="points">
                            <mxPoint x="601.39" y="493.02"/>
                            <mxPoint x="601.39" y="493.02"/>
                        </Array>
                        <mxPoint x="546.39" y="493.02" as="sourcePoint"/>
                        <mxPoint x="633.865249806889" y="493.02" as="targetPoint"/>
                    </mxGeometry>
                </mxCell>
                <mxCell id="15" value="" style="edgeStyle=orthogonalEdgeStyle;rounded=0;orthogonalLoop=1;jettySize=auto;html=1;" parent="1" edge="1">
                    <mxGeometry relative="1" as="geometry">
                        <Array as="points">
                            <mxPoint x="591.39" y="517.05"/>
                            <mxPoint x="591.39" y="517.05"/>
                        </Array>
                        <mxPoint x="639.9984757729338" y="517.05" as="sourcePoint"/>
                        <mxPoint x="546.39" y="517.05" as="targetPoint"/>
                    </mxGeometry>
                </mxCell>
                <mxCell id="32" value="" style="edgeStyle=orthogonalEdgeStyle;rounded=0;orthogonalLoop=1;jettySize=auto;html=1;" parent="1" edge="1">
                    <mxGeometry relative="1" as="geometry">
                        <Array as="points">
                            <mxPoint x="601.39" y="633.02"/>
                            <mxPoint x="601.39" y="633.02"/>
                        </Array>
                        <mxPoint x="546.3899999999999" y="633.02" as="sourcePoint"/>
                        <mxPoint x="633.8652498068891" y="633.02" as="targetPoint"/>
                    </mxGeometry>
                </mxCell>
                <mxCell id="16" style="edgeStyle=orthogonalEdgeStyle;rounded=0;orthogonalLoop=1;jettySize=auto;html=1;" parent="1" edge="1">
                    <mxGeometry relative="1" as="geometry">
                        <mxPoint x="425" y="510" as="sourcePoint"/>
                        <mxPoint x="340" y="718" as="targetPoint"/>
                        <Array as="points">
                            <mxPoint x="340" y="510"/>
                            <mxPoint x="340" y="718"/>
                        </Array>
                    </mxGeometry>
                </mxCell>
                <mxCell id="M3he5cbrGpUi39JVeMMq-3" value="" style="edgeStyle=orthogonalEdgeStyle;rounded=0;orthogonalLoop=1;jettySize=auto;html=1;shape=flexArrow;" parent="1" source="M3he5cbrGpUi39JVeMMq-1" target="M3he5cbrGpUi39JVeMMq-2" edge="1">
                    <mxGeometry relative="1" as="geometry"/>
                </mxCell>
                <mxCell id="M3he5cbrGpUi39JVeMMq-1" value="Start generate_dashborard.py" style="rounded=1;whiteSpace=wrap;html=1;" parent="1" vertex="1">
                    <mxGeometry x="413" y="60" width="145" height="70" as="geometry"/>
                </mxCell>
                <mxCell id="M3he5cbrGpUi39JVeMMq-5" value="" style="edgeStyle=orthogonalEdgeStyle;rounded=0;orthogonalLoop=1;jettySize=auto;html=1;" parent="1" edge="1">
                    <mxGeometry relative="1" as="geometry">
                        <mxPoint x="544.9999999999999" y="220" as="sourcePoint"/>
                        <mxPoint x="648.0384757729337" y="220" as="targetPoint"/>
                        <Array as="points">
                            <mxPoint x="610" y="220"/>
                            <mxPoint x="610" y="220"/>
                        </Array>
                    </mxGeometry>
                </mxCell>
                <mxCell id="M3he5cbrGpUi39JVeMMq-7" value="api call" style="edgeLabel;html=1;align=center;verticalAlign=middle;resizable=0;points=[];" parent="M3he5cbrGpUi39JVeMMq-5" vertex="1" connectable="0">
                    <mxGeometry x="-0.3074" y="-3" relative="1" as="geometry">
                        <mxPoint x="19" as="offset"/>
                    </mxGeometry>
                </mxCell>
                <mxCell id="M3he5cbrGpUi39JVeMMq-11" value="" style="edgeStyle=orthogonalEdgeStyle;rounded=0;orthogonalLoop=1;jettySize=auto;html=1;shape=flexArrow;" parent="1" source="M3he5cbrGpUi39JVeMMq-2" target="M3he5cbrGpUi39JVeMMq-10" edge="1">
                    <mxGeometry relative="1" as="geometry"/>
                </mxCell>
                <mxCell id="M3he5cbrGpUi39JVeMMq-18" style="edgeStyle=orthogonalEdgeStyle;rounded=0;orthogonalLoop=1;jettySize=auto;html=1;exitX=0;exitY=0.5;exitDx=0;exitDy=0;" parent="1" source="M3he5cbrGpUi39JVeMMq-2" target="M3he5cbrGpUi39JVeMMq-17" edge="1">
                    <mxGeometry relative="1" as="geometry">
                        <Array as="points">
                            <mxPoint x="300" y="230"/>
                        </Array>
                    </mxGeometry>
                </mxCell>
                <mxCell id="M3he5cbrGpUi39JVeMMq-2" value="get_weather(city)" style="rounded=1;whiteSpace=wrap;html=1;" parent="1" vertex="1">
                    <mxGeometry x="425" y="200" width="120" height="60" as="geometry"/>
                </mxCell>
                <mxCell id="M3he5cbrGpUi39JVeMMq-6" value="openweathermap&amp;nbsp;&lt;br style=&quot;border-color: var(--border-color);&quot;&gt;api" style="ellipse;shape=cloud;whiteSpace=wrap;html=1;" parent="1" vertex="1">
                    <mxGeometry x="640" y="190" width="120" height="80" as="geometry"/>
                </mxCell>
                <mxCell id="M3he5cbrGpUi39JVeMMq-8" value="" style="edgeStyle=orthogonalEdgeStyle;rounded=0;orthogonalLoop=1;jettySize=auto;html=1;" parent="1" source="M3he5cbrGpUi39JVeMMq-6" target="M3he5cbrGpUi39JVeMMq-2" edge="1">
                    <mxGeometry relative="1" as="geometry">
                        <mxPoint x="554.9999999999999" y="280" as="sourcePoint"/>
                        <mxPoint x="658.0384757729337" y="280" as="targetPoint"/>
                        <Array as="points">
                            <mxPoint x="600" y="250"/>
                            <mxPoint x="600" y="250"/>
                        </Array>
                    </mxGeometry>
                </mxCell>
                <mxCell id="M3he5cbrGpUi39JVeMMq-9" value="response" style="edgeLabel;html=1;align=center;verticalAlign=middle;resizable=0;points=[];" parent="M3he5cbrGpUi39JVeMMq-8" vertex="1" connectable="0">
                    <mxGeometry x="-0.3074" y="-3" relative="1" as="geometry">
                        <mxPoint x="-12" as="offset"/>
                    </mxGeometry>
                </mxCell>
                <mxCell id="M3he5cbrGpUi39JVeMMq-15" value="" style="edgeStyle=orthogonalEdgeStyle;rounded=0;orthogonalLoop=1;jettySize=auto;html=1;" parent="1" source="M3he5cbrGpUi39JVeMMq-10" target="M3he5cbrGpUi39JVeMMq-13" edge="1">
                    <mxGeometry relative="1" as="geometry">
                        <Array as="points">
                            <mxPoint x="600" y="360"/>
                            <mxPoint x="600" y="360"/>
                        </Array>
                    </mxGeometry>
                </mxCell>
                <mxCell id="M3he5cbrGpUi39JVeMMq-19" style="edgeStyle=orthogonalEdgeStyle;rounded=0;orthogonalLoop=1;jettySize=auto;html=1;entryX=0.5;entryY=0;entryDx=0;entryDy=0;" parent="1" source="M3he5cbrGpUi39JVeMMq-10" target="M3he5cbrGpUi39JVeMMq-17" edge="1">
                    <mxGeometry relative="1" as="geometry">
                        <Array as="points">
                            <mxPoint x="325" y="370"/>
                        </Array>
                    </mxGeometry>
                </mxCell>
                <mxCell id="10" style="edgeStyle=none;html=1;entryX=0.5;entryY=0;entryDx=0;entryDy=0;shape=flexArrow;" parent="1" source="M3he5cbrGpUi39JVeMMq-10" target="6" edge="1">
                    <mxGeometry relative="1" as="geometry"/>
                </mxCell>
                <mxCell id="M3he5cbrGpUi39JVeMMq-10" value="get_calendar()" style="rounded=1;whiteSpace=wrap;html=1;" parent="1" vertex="1">
                    <mxGeometry x="425" y="340" width="120" height="60" as="geometry"/>
                </mxCell>
                <mxCell id="M3he5cbrGpUi39JVeMMq-12" value="api call" style="edgeLabel;html=1;align=center;verticalAlign=middle;resizable=0;points=[];" parent="1" vertex="1" connectable="0">
                    <mxGeometry x="589.9972499071358" y="363.0155658650957" as="geometry"/>
                </mxCell>
                <mxCell id="M3he5cbrGpUi39JVeMMq-16" value="" style="edgeStyle=orthogonalEdgeStyle;rounded=0;orthogonalLoop=1;jettySize=auto;html=1;" parent="1" source="M3he5cbrGpUi39JVeMMq-13" target="M3he5cbrGpUi39JVeMMq-10" edge="1">
                    <mxGeometry relative="1" as="geometry">
                        <Array as="points">
                            <mxPoint x="590" y="390"/>
                            <mxPoint x="590" y="390"/>
                        </Array>
                    </mxGeometry>
                </mxCell>
                <mxCell id="M3he5cbrGpUi39JVeMMq-13" value="O365 api" style="ellipse;shape=cloud;whiteSpace=wrap;html=1;" parent="1" vertex="1">
                    <mxGeometry x="630.57" y="330" width="120" height="80" as="geometry"/>
                </mxCell>
                <mxCell id="M3he5cbrGpUi39JVeMMq-14" value="response&amp;nbsp;" style="edgeLabel;html=1;align=center;verticalAlign=middle;resizable=0;points=[];" parent="1" vertex="1" connectable="0">
                    <mxGeometry x="591.204671503877" y="387.02857142857135" as="geometry"/>
                </mxCell>
                <mxCell id="21" value="" style="edgeStyle=none;shape=flexArrow;html=1;" parent="1" source="M3he5cbrGpUi39JVeMMq-17" target="M3he5cbrGpUi39JVeMMq-20" edge="1">
                    <mxGeometry relative="1" as="geometry"/>
                </mxCell>
                <mxCell id="M3he5cbrGpUi39JVeMMq-17" value="Ersetze Daten im Template durch Daten aus Variablen" style="rounded=1;whiteSpace=wrap;html=1;" parent="1" vertex="1">
                    <mxGeometry x="265" y="720" width="120" height="60" as="geometry"/>
                </mxCell>
                <mxCell id="22" value="" style="edgeStyle=none;shape=flexArrow;html=1;" parent="1" source="M3he5cbrGpUi39JVeMMq-20" target="2" edge="1">
                    <mxGeometry relative="1" as="geometry"/>
                </mxCell>
                <mxCell id="M3he5cbrGpUi39JVeMMq-20" value="Speichere Dashboard als HTML Datei" style="whiteSpace=wrap;html=1;rounded=1;" parent="1" vertex="1">
                    <mxGeometry x="450" y="720" width="120" height="60" as="geometry"/>
                </mxCell>
                <mxCell id="M3he5cbrGpUi39JVeMMq-23" value="Informationen in Variablen" style="edgeLabel;html=1;align=center;verticalAlign=middle;resizable=0;points=[];" parent="1" vertex="1" connectable="0">
                    <mxGeometry x="330.0033333333333" y="700" as="geometry"/>
                </mxCell>
                <mxCell id="24" value="" style="edgeStyle=none;shape=flexArrow;html=1;" parent="1" source="2" target="23" edge="1">
                    <mxGeometry relative="1" as="geometry"/>
                </mxCell>
                <mxCell id="2" value="Öffne HTML im headless browser und mache einen Screenshot" style="whiteSpace=wrap;html=1;rounded=1;" parent="1" vertex="1">
                    <mxGeometry x="450" y="840" width="120" height="60" as="geometry"/>
                </mxCell>
                <mxCell id="6" value="get_tasks()" style="whiteSpace=wrap;html=1;rounded=1;" parent="1" vertex="1">
                    <mxGeometry x="425" y="480" width="120" height="60" as="geometry"/>
                </mxCell>
                <mxCell id="11" value="api call" style="edgeLabel;html=1;align=center;verticalAlign=middle;resizable=0;points=[];" parent="1" vertex="1" connectable="0">
                    <mxGeometry x="589.9972499071358" y="493.0155658650957" as="geometry"/>
                </mxCell>
                <mxCell id="12" value="O365 api" style="ellipse;shape=cloud;whiteSpace=wrap;html=1;" parent="1" vertex="1">
                    <mxGeometry x="630.57" y="460" width="120" height="80" as="geometry"/>
                </mxCell>
                <mxCell id="13" value="response&amp;nbsp;" style="edgeLabel;html=1;align=center;verticalAlign=middle;resizable=0;points=[];" parent="1" vertex="1" connectable="0">
                    <mxGeometry x="591.204671503877" y="517.0285714285714" as="geometry"/>
                </mxCell>
                <mxCell id="20" value="" style="edgeStyle=none;shape=flexArrow;html=1;" parent="1" source="18" target="M3he5cbrGpUi39JVeMMq-17" edge="1">
                    <mxGeometry relative="1" as="geometry"/>
                </mxCell>
                <mxCell id="18" value="Lade HTML Template aus Datei" style="rounded=1;whiteSpace=wrap;html=1;" parent="1" vertex="1">
                    <mxGeometry x="90" y="720" width="120" height="60" as="geometry"/>
                </mxCell>
                <mxCell id="23" value="Schreibe Screenshot auf Inky Display" style="whiteSpace=wrap;html=1;rounded=1;" parent="1" vertex="1">
                    <mxGeometry x="450" y="960" width="120" height="60" as="geometry"/>
                </mxCell>
                <mxCell id="25" value="get_news())" style="rounded=1;whiteSpace=wrap;html=1;" parent="1" vertex="1">
                    <mxGeometry x="425" y="620" width="120" height="60" as="geometry"/>
                </mxCell>
                <mxCell id="27" style="edgeStyle=none;html=1;entryX=0.5;entryY=0;entryDx=0;entryDy=0;shape=flexArrow;" parent="1" edge="1">
                    <mxGeometry relative="1" as="geometry">
                        <mxPoint x="484.5" y="540" as="sourcePoint"/>
                        <mxPoint x="484.5" y="620" as="targetPoint"/>
                    </mxGeometry>
                </mxCell>
                <mxCell id="28" style="edgeStyle=orthogonalEdgeStyle;rounded=0;orthogonalLoop=1;jettySize=auto;html=1;" parent="1" edge="1">
                    <mxGeometry relative="1" as="geometry">
                        <mxPoint x="425.4" y="640" as="sourcePoint"/>
                        <mxPoint x="367" y="720" as="targetPoint"/>
                        <Array as="points">
                            <mxPoint x="367.4" y="640"/>
                        </Array>
                    </mxGeometry>
                </mxCell>
                <mxCell id="29" value="read rss" style="edgeLabel;html=1;align=center;verticalAlign=middle;resizable=0;points=[];" parent="1" vertex="1" connectable="0">
                    <mxGeometry x="589.9972499071358" y="633.0155658650957" as="geometry"/>
                </mxCell>
                <mxCell id="30" value="20Minuten&lt;br&gt;RSS Feed" style="ellipse;shape=cloud;whiteSpace=wrap;html=1;" parent="1" vertex="1">
                    <mxGeometry x="630.57" y="600" width="120" height="80" as="geometry"/>
                </mxCell>
                <mxCell id="31" value="response&amp;nbsp;" style="edgeLabel;html=1;align=center;verticalAlign=middle;resizable=0;points=[];" parent="1" vertex="1" connectable="0">
                    <mxGeometry x="591.204671503877" y="657.0285714285714" as="geometry"/>
                </mxCell>
            </root>
        </mxGraphModel>
    </diagram>
</mxfile>